<?xml version="1.0" encoding="UTF-8" standalone="no"?>
<!-- Created with Inkscape (http://www.inkscape.org/) -->

<svg
   xmlns:dc="http://purl.org/dc/elements/1.1/"
   xmlns:cc="http://creativecommons.org/ns#"
   xmlns:rdf="http://www.w3.org/1999/02/22-rdf-syntax-ns#"
   xmlns:svg="http://www.w3.org/2000/svg"
   xmlns="http://www.w3.org/2000/svg"
   xmlns:sodipodi="http://sodipodi.sourceforge.net/DTD/sodipodi-0.dtd"
   xmlns:inkscape="http://www.inkscape.org/namespaces/inkscape"
   width="10000"
   height="2000"
   viewBox="0 0 2645.8333 529.16668"
   version="1.1"
   id="svg6515"
   sodipodi:docname="back-background.svg"
   inkscape:export-filename="C:\Users\cnnr2\OneDrive\Desktop\Drawings\back-background.png"
   inkscape:export-xdpi="200"
   inkscape:export-ydpi="200"
   inkscape:version="0.92.4 (5da689c313, 2019-01-14)">
  <defs
     id="defs6509" />
  <sodipodi:namedview
     id="base"
     pagecolor="#ffffff"
     bordercolor="#666666"
     borderopacity="1.0"
     inkscape:pageopacity="0.0"
     inkscape:pageshadow="2"
     inkscape:zoom="0.12374369"
     inkscape:cx="1761.0472"
     inkscape:cy="2701.1558"
     inkscape:document-units="mm"
     inkscape:current-layer="layer1"
     showgrid="false"
     units="px"
     inkscape:snap-global="false"
     inkscape:window-width="1920"
     inkscape:window-height="986"
     inkscape:window-x="-11"
     inkscape:window-y="-11"
     inkscape:window-maximized="1" />
  <metadata
     id="metadata6512">
    <rdf:RDF>
      <cc:Work
         rdf:about="">
        <dc:format>image/svg+xml</dc:format>
        <dc:type
           rdf:resource="http://purl.org/dc/dcmitype/StillImage" />
        <dc:title></dc:title>
      </cc:Work>
    </rdf:RDF>
  </metadata>
  <g
     inkscape:label="Layer 1"
     inkscape:groupmode="layer"
     id="layer1"
     transform="translate(0,232.16668)">
    <path
       style="fill:#e3dbdb;stroke:#000000;stroke-width:0.26804867px;stroke-linecap:butt;stroke-linejoin:miter;stroke-opacity:1"
       d="m 0,-72.685214 55.592061,-66.933216 28.865108,31.82071 47.039431,-26.33436 7.48355,-52.66877 42.76312,-52.66877 14.9671,62.54416 38.48681,52.66877 65.21377,18.6535 9.62171,-13.16718 35.27956,-39.50159 h 40.62497 l 26.72694,23.04261 21.38156,2.19452 17.10526,-46.08517 7.48356,-35.11251 66.28283,-137.15823 22.45064,165.68715 26.72696,44.9879 48.1085,15.36171 40.62497,-24.13984 16.03619,-47.18243 56.66112,-97.65666 78.04272,46.08516 23.51971,63.64143 101.5624,-53.76604 14.96711,-110.82385 40.62497,-106.4348 64.14467,98.75394 49.1776,134.96369 26.7269,35.11253 55.5921,25.2371 29.9342,8.77813 57.7302,-137.15823 52.3848,151.42268 50.2467,37.30706 44.9013,-15.36174 20.3125,-17.55623 36.3486,42.79336 84.4572,48.279697 18.1743,-85.586757 45.9704,98.75394 69.4901,23.0425735 20.3124,-39.5015505 23.5198,-59.252373 27.796,-9.87539 14.9671,-66.93322 40.6249,69.12776 66.2829,54.863297 62.0065,-137.158237 11.7599,68.03047 40.6249,53.766038 39.5559,-47.182428 38.4869,-79.00313 43.8321,-129.47739 47.0395,-40.59884 23.5197,32.91797 33.1414,73.51682 41.6941,47.18243 79.1117,-24.13985 28.8652,52.66877 79.1117,61.44687 58.7993,-24.13984 59.8684,-49.37694 66.2827,100.948446 1.0692,142.644567 L 1.0690781,42.527715 Z"
       id="path6629"
       inkscape:connector-curvature="0" />
    <path
       style="fill:#c8b7b7;stroke:#000000;stroke-width:0.26458332px;stroke-linecap:butt;stroke-linejoin:miter;stroke-opacity:1"
       d="M 1.5119047,30.904744 57.452381,-28.05954 117.92857,9.7380777 l 55.94048,-18.1428546 4.53571,-48.3809541 16.63095,-34.773808 102.80953,108.857141 130.02381,-93.738093 51.40476,39.309524 19.65476,74.083343 74.08333,-40.8214406 4.5357,-54.4285694 55.94048,-13.607142 27.2143,69.5476173 63.5,31.7499997 39.30952,-83.154762 39.30951,-57.452379 78.61906,58.964284 117.92858,-93.738094 46.86905,107.345237 93.7381,37.79761752 90.7143,-98.27380752 93.7381,78.619047 78.619,43.845239 102.8095,-37.797621 93.7381,30.238097 104.3214,19.654768 93.7381,-81.642864 65.0119,6.04762 57.4524,37.7976183 40.8215,18.1428577 170.8452,-102.809523 45.3571,-86.178576 92.2262,42.33334 51.4048,69.547617 113.3928,39.309521 98.2739,-45.357142 80.1309,48.380954 37.7977,52.916669 V 296.99998 L 1.5119047,298.51189 Z"
       id="path6673"
       inkscape:connector-curvature="0" />
    <path
       style="fill:#ac9393;stroke:#000000;stroke-width:0.26458332px;stroke-linecap:butt;stroke-linejoin:miter;stroke-opacity:1"
       d="M -1.5119047,126.15474 113.39286,65.678558 l 125.48809,30.238091 52.91665,65.011911 128.51191,-31.75 71.05954,-31.750002 96.76188,24.190482 40.82145,69.54761 101.29761,-71.05952 86.17857,-96.761907 130.02382,83.154757 130.02382,-42.33333 66.5238,102.80951 87.6905,-71.059511 33.2619,-33.261908 114.9047,49.892849 40.8215,66.52382 170.8452,16.63096 31.75,-77.10715 190.5,-13.60715 22.6786,49.89285 133.0476,33.26191 27.2142,-61.98809 110.3691,-99.785708 93.7381,-71.059524 75.5952,68.035715 39.3096,98.273817 69.5476,54.42855 90.7143,-33.26188 60.4761,-60.476211 111.8809,36.285721 V 295.48807 L -1.5119047,296.99998 Z"
       id="path6675"
       inkscape:connector-curvature="0" />
    <path
       style="fill:#916f6f;stroke:#000000;stroke-width:0.26458332px;stroke-linecap:butt;stroke-linejoin:miter;stroke-opacity:1"
       d="m 0,265.24998 95.249999,-12.09524 69.547621,-57.45237 102.80953,24.19046 83.15475,39.30954 107.34524,-18.14287 69.54761,-24.19046 193.52382,28.72618 122.46427,-30.23809 15.11906,-34.77382 92.22618,-9.07142 68.03572,68.0357 95.25,36.28572 77.1071,-36.28572 43.8453,-60.47618 170.8452,63.5 114.9048,36.28572 142.119,-72.57142 80.131,43.84521 89.2024,12.09524 127,-1.51191 77.1071,-84.66666 113.3928,-49.89285 119.4405,74.08333 80.131,58.9643 h 54.4285 l 143.631,-45.35715 33.2619,-33.26191 66.5237,71.05952 3.024,388.55954 L 6.047619,628.10713 Z"
       id="path6677"
       inkscape:connector-curvature="0" />
  </g>
</svg>
